<?xml version="1.0" standalone="no"?>
<!DOCTYPE svg PUBLIC "-//W3C//DTD SVG 20010904//EN"
 "http://www.w3.org/TR/2001/REC-SVG-20010904/DTD/svg10.dtd">
<svg version="1.0" xmlns="http://www.w3.org/2000/svg"
 width="1000.000000pt" height="1600.000000pt" viewBox="0 0 1000.000000 1600.000000"
 preserveAspectRatio="xMidYMid meet">

<g transform="translate(0.000000,1600.000000) scale(0.100000,-0.100000)"
fill="#000000" stroke="none">
<path d="M1460 15100 c0 -80 4 -130 10 -130 6 0 10 29 10 68 0 72 16 102 52
102 43 0 48 -10 48 -91 0 -46 4 -79 10 -79 6 0 10 33 10 79 0 59 -4 84 -16 95
-18 19 -75 21 -92 4 -9 -9 -12 -2 -12 35 0 26 -4 47 -10 47 -6 0 -10 -50 -10
-130z"/>
<path d="M4220 15183 c0 -37 -3 -44 -12 -35 -22 22 -75 14 -97 -14 -47 -60
-14 -164 53 -164 17 0 38 6 44 12 10 10 15 10 22 -2 6 -10 10 31 10 118 0 81
-4 132 -10 132 -5 0 -10 -21 -10 -47z m-16 -59 c10 -9 16 -33 16 -59 0 -48
-19 -75 -52 -75 -35 0 -58 29 -58 72 0 63 56 100 94 62z"/>
<path d="M4432 15218 c-7 -7 -12 -22 -12 -34 0 -14 -8 -24 -22 -29 l-23 -8 23
-4 c21 -4 22 -9 22 -89 0 -49 4 -84 10 -84 6 0 10 35 10 85 0 78 2 85 20 85
11 0 20 5 20 10 0 6 -9 10 -21 10 -34 0 -21 44 14 48 15 2 27 8 27 13 0 13
-54 11 -68 -3z"/>
<path d="M622 15193 c3 -10 18 -64 33 -121 15 -56 33 -101 38 -99 6 2 21 43
34 93 14 49 28 92 31 96 4 4 20 -38 36 -92 16 -55 33 -100 37 -100 5 0 9 1 9
3 0 1 14 49 30 107 31 110 36 135 21 126 -4 -3 -19 -46 -31 -95 -13 -50 -27
-88 -30 -86 -4 2 -17 42 -30 87 -23 84 -34 107 -46 95 -4 -4 -19 -50 -34 -103
l-27 -97 -28 102 c-15 55 -32 101 -37 101 -6 0 -8 -8 -6 -17z"/>
<path d="M2100 15090 c0 -73 4 -120 10 -120 6 0 10 47 10 120 0 73 -4 120 -10
120 -6 0 -10 -47 -10 -120z"/>
<path d="M3068 15181 c-31 -27 -33 -34 -33 -91 0 -57 2 -64 33 -91 29 -26 40
-30 79 -27 63 4 66 23 3 23 -68 0 -95 27 -95 95 0 71 27 95 100 94 54 -2 71 8
39 20 -41 16 -94 6 -126 -23z"/>
<path d="M4968 15137 c32 -58 42 -87 42 -122 0 -25 5 -45 10 -45 6 0 10 21 10
46 0 36 10 64 41 120 22 41 36 74 30 74 -6 0 -25 -27 -43 -60 -18 -33 -35 -60
-38 -60 -3 0 -19 26 -35 57 -17 31 -37 59 -45 61 -7 3 5 -29 28 -71z"/>
<path d="M5560 15120 c0 -53 4 -90 10 -90 6 0 10 37 10 90 0 53 -4 90 -10 90
-6 0 -10 -37 -10 -90z"/>
<path d="M1335 15185 c-5 -11 -16 -25 -24 -32 -14 -11 -14 -12 2 -13 15 0 17
-10 17 -73 0 -78 9 -97 46 -97 34 0 39 18 7 22 -27 3 -28 5 -31 76 -3 71 -3
72 23 72 14 0 25 5 25 10 0 6 -11 10 -24 10 -18 0 -26 6 -29 23 -3 21 -4 21
-12 2z"/>
<path d="M3785 15185 c-5 -11 -16 -25 -24 -32 -14 -11 -14 -12 2 -13 15 0 17
-10 17 -73 0 -78 9 -97 46 -97 34 0 39 18 7 22 -27 3 -28 5 -31 76 -3 71 -3
72 23 72 14 0 25 5 25 10 0 6 -11 10 -24 10 -18 0 -26 6 -29 23 -3 21 -4 21
-12 2z"/>
<path d="M965 15135 c-35 -34 -35 -106 0 -140 24 -25 65 -32 99 -19 31 12 15
24 -23 18 -31 -5 -43 -2 -60 15 -39 39 -28 51 45 51 l67 0 -7 32 c-14 68 -75
90 -121 43z m89 -17 c24 -34 20 -38 -39 -38 -59 0 -67 8 -35 40 26 26 55 25
74 -2z"/>
<path d="M1164 15144 c-18 -14 -17 -15 17 -9 48 7 69 -2 69 -31 0 -20 -5 -24
-31 -24 -64 0 -102 -44 -74 -86 17 -27 71 -34 93 -12 10 10 15 10 22 -2 7 -10
10 14 10 72 0 76 -2 89 -19 98 -28 15 -64 12 -87 -6z m86 -109 c0 -46 -82 -63
-88 -17 -4 24 22 40 66 41 17 1 22 -5 22 -24z"/>
<path d="M1685 15135 c-19 -18 -25 -35 -25 -70 0 -73 58 -114 124 -89 31 12
15 24 -23 18 -31 -5 -43 -2 -60 15 -39 39 -28 51 45 51 l67 0 -7 32 c-14 68
-75 90 -121 43z m89 -17 c24 -34 20 -38 -39 -38 -59 0 -67 8 -35 40 26 26 55
25 74 -2z"/>
<path d="M1860 15065 c0 -57 4 -95 10 -95 6 0 10 29 10 68 0 75 16 102 58 102
12 0 22 5 22 10 0 14 -54 12 -68 -2 -9 -9 -12 -9 -12 0 0 7 -4 12 -10 12 -6 0
-10 -38 -10 -95z"/>
<path d="M2205 15136 c-19 -20 -25 -35 -25 -71 0 -62 33 -98 87 -93 20 2 38 8
40 15 3 8 -6 10 -30 6 -46 -7 -77 22 -77 72 0 50 31 79 77 72 24 -4 33 -2 30
6 -2 7 -20 13 -40 15 -28 2 -42 -3 -62 -22z"/>
<path d="M2375 15135 c-19 -18 -25 -35 -25 -70 0 -35 6 -52 25 -70 55 -56 135
-15 135 70 0 57 -32 95 -80 95 -19 0 -40 -9 -55 -25z m95 -15 c41 -41 14 -130
-40 -130 -32 0 -60 36 -60 75 0 39 28 75 60 75 11 0 29 -9 40 -20z"/>
<path d="M2570 15065 c0 -57 4 -95 10 -95 6 0 10 29 10 68 0 72 16 102 52 102
43 0 48 -10 48 -91 0 -46 4 -79 10 -79 6 0 10 33 10 79 0 59 -4 84 -16 95 -18
19 -75 21 -92 4 -9 -9 -12 -9 -12 0 0 7 -4 12 -10 12 -6 0 -10 -38 -10 -95z"/>
<path d="M2786 15147 c-32 -23 -17 -59 37 -85 76 -36 56 -83 -29 -67 -19 3
-34 2 -34 -3 0 -22 76 -30 111 -12 12 7 19 21 19 41 0 26 -6 33 -46 50 -74 33
-69 76 9 64 20 -3 37 -1 37 4 0 23 -76 29 -104 8z"/>
<path d="M3260 15065 c0 -57 4 -95 10 -95 6 0 10 29 10 68 0 75 16 102 58 102
12 0 22 5 22 10 0 14 -54 12 -68 -2 -9 -9 -12 -9 -12 0 0 7 -4 12 -10 12 -6 0
-10 -38 -10 -95z"/>
<path d="M3415 15135 c-19 -18 -25 -35 -25 -70 0 -73 58 -114 124 -89 31 12
15 24 -23 18 -31 -5 -43 -2 -60 15 -39 39 -28 51 45 51 l67 0 -7 32 c-14 68
-75 90 -121 43z m89 -17 c24 -34 20 -38 -39 -38 -59 0 -67 8 -35 40 26 26 55
25 74 -2z"/>
<path d="M3604 15144 c-18 -14 -17 -15 17 -9 48 7 69 -2 69 -31 0 -20 -5 -24
-31 -24 -64 0 -102 -44 -74 -86 17 -27 71 -34 93 -12 10 10 15 10 22 -2 7 -10
10 14 10 72 0 76 -2 89 -19 98 -28 15 -64 12 -87 -6z m86 -109 c0 -46 -82 -63
-88 -17 -4 24 22 40 66 41 17 1 22 -5 22 -24z"/>
<path d="M3915 15135 c-19 -18 -25 -35 -25 -70 0 -73 58 -114 124 -89 31 12
15 24 -23 18 -31 -5 -43 -2 -60 15 -39 39 -28 51 45 51 l67 0 -7 32 c-14 68
-75 90 -121 43z m89 -17 c24 -34 20 -38 -39 -38 -59 0 -67 8 -35 40 26 26 55
25 74 -2z"/>
<path d="M4535 15135 c-19 -18 -25 -35 -25 -70 0 -35 6 -52 25 -70 55 -56 135
-15 135 70 0 57 -32 95 -80 95 -19 0 -40 -9 -55 -25z m95 -15 c41 -41 14 -130
-40 -130 -32 0 -60 36 -60 75 0 39 28 75 60 75 11 0 29 -9 40 -20z"/>
<path d="M4720 15065 c0 -57 4 -95 10 -95 6 0 10 29 10 68 0 75 16 102 58 102
12 0 22 5 22 10 0 14 -54 12 -68 -2 -9 -9 -12 -9 -12 0 0 7 -4 12 -10 12 -6 0
-10 -38 -10 -95z"/>
<path d="M5165 15135 c-19 -18 -25 -35 -25 -70 0 -35 6 -52 25 -70 55 -56 135
-15 135 70 0 57 -32 95 -80 95 -19 0 -40 -9 -55 -25z m95 -15 c41 -41 14 -130
-40 -130 -32 0 -60 36 -60 75 0 39 28 75 60 75 11 0 29 -9 40 -20z"/>
<path d="M5360 15081 c0 -59 4 -84 16 -95 18 -19 75 -21 92 -4 9 9 12 9 12 0
0 -7 5 -12 10 -12 6 0 10 38 10 95 0 57 -4 95 -10 95 -6 0 -10 -30 -10 -69 0
-76 -13 -101 -54 -101 -37 0 -46 19 -46 97 0 42 -4 73 -10 73 -6 0 -10 -33
-10 -79z"/>
<path d="M5560 14985 c0 -9 5 -15 11 -13 6 2 11 8 11 13 0 5 -5 11 -11 13 -6
2 -11 -4 -11 -13z"/>
<path d="M633 14855 c0 -22 2 -30 4 -17 2 12 2 30 0 40 -3 9 -5 -1 -4 -23z"/>
<path d="M1191 14854 c0 -11 3 -14 6 -6 3 7 2 16 -1 19 -3 4 -6 -2 -5 -13z"/>
<path d="M1138 14813 c6 -2 18 -2 25 0 6 3 1 5 -13 5 -14 0 -19 -2 -12 -5z"/>
<path d="M1338 14813 c7 -3 16 -2 19 1 4 3 -2 6 -13 5 -11 0 -14 -3 -6 -6z"/>
<path d="M1042 13868 c-7 -7 -12 -44 -12 -93 0 -85 12 -114 37 -94 9 8 13 38
13 94 0 86 -13 118 -38 93z"/>
<path d="M4334 13727 c-3 -8 -4 -36 -2 -63 2 -36 7 -49 18 -49 20 0 22 116 3
122 -7 3 -16 -2 -19 -10z"/>
<path d="M9064 13726 c-43 -19 -99 -71 -114 -105 -9 -24 -21 -32 -61 -41 -66
-16 -122 -59 -148 -113 -21 -44 -23 -45 -61 -40 -65 9 -129 -15 -180 -66 -89
-90 -93 -205 -8 -297 68 -73 81 -76 424 -72 l301 3 41 28 c63 41 95 97 100
171 3 49 0 71 -17 104 l-21 41 32 46 c43 60 52 159 20 221 -45 88 -119 134
-217 133 -33 0 -74 -6 -91 -13z m169 -40 c39 -17 92 -71 106 -109 22 -57 6
-143 -36 -189 -15 -17 -17 -16 -41 3 -14 11 -45 24 -68 30 -29 8 -46 18 -50
31 -11 35 -72 94 -116 113 -24 11 -45 20 -47 22 -2 1 9 19 24 39 50 65 153 92
228 60z m-215 -160 c37 -19 68 -55 86 -98 13 -31 22 -38 53 -44 128 -22 195
-138 144 -249 -22 -48 -44 -69 -94 -90 -30 -12 -86 -15 -304 -15 -148 0 -284
4 -302 10 -39 11 -86 51 -107 92 -8 15 -14 51 -14 81 0 114 103 192 218 166
51 -11 58 -8 67 28 11 47 45 93 83 113 44 23 131 26 170 6z"/>
<path d="M635 13690 c-9 -15 9 -41 70 -99 45 -43 58 -51 70 -41 20 16 9 34
-59 98 -55 52 -70 60 -81 42z"/>
<path d="M1423 13636 c-55 -55 -64 -68 -53 -81 8 -10 17 -12 29 -6 29 16 123
121 119 133 -10 28 -33 16 -95 -46z"/>
<path d="M5942 13621 c-58 -20 -114 -67 -132 -112 -9 -21 -21 -29 -51 -34 -58
-10 -129 -62 -156 -115 l-23 -44 -63 -1 c-132 -2 -221 -91 -221 -220 -1 -78
31 -138 97 -182 62 -42 97 -45 407 -41 239 3 258 4 295 25 111 59 155 181 105
291 l-19 42 32 46 c26 37 32 56 35 114 4 60 1 75 -24 119 -33 62 -82 101 -148
118 -64 16 -70 16 -134 -6z m166 -52 c103 -50 133 -191 61 -283 -20 -26 -21
-26 -44 -8 -13 11 -44 25 -69 32 -34 9 -47 19 -57 41 -15 39 -92 106 -130 114
-16 4 -29 9 -29 12 0 4 11 21 26 40 54 71 156 93 242 52z m-230 -153 c37 -19
66 -53 89 -101 16 -35 23 -41 58 -46 51 -7 75 -20 113 -63 67 -77 49 -194 -41
-260 -27 -20 -42 -21 -327 -24 -284 -3 -301 -2 -339 17 -56 29 -84 73 -89 142
-5 69 16 119 66 157 32 24 44 27 120 27 l85 0 13 37 c19 55 43 87 83 108 43
23 130 26 169 6z"/>
<path d="M4040 13597 c0 -19 77 -90 89 -83 19 12 12 31 -22 64 -34 33 -67 42
-67 19z"/>
<path d="M4612 13577 c-34 -35 -39 -51 -21 -63 12 -7 89 64 89 83 0 24 -36 13
-68 -20z"/>
<path d="M7279 13587 c-127 -36 -212 -127 -240 -257 -8 -39 -8 -54 1 -66 17
-20 40 0 40 35 0 92 83 203 175 234 107 37 220 13 295 -63 47 -46 80 -117 80
-171 0 -35 23 -55 40 -35 29 36 -32 190 -99 248 -78 69 -201 100 -292 75z"/>
<path d="M1003 13570 c-92 -19 -182 -90 -225 -178 -33 -68 -33 -206 0 -274
119 -242 460 -242 579 0 24 48 28 70 28 137 0 67 -4 89 -28 137 -64 131 -215
207 -354 178z m182 -64 c265 -126 178 -526 -115 -526 -153 0 -280 125 -280
275 0 197 218 335 395 251z"/>
<path d="M2559 13567 c-148 -42 -243 -163 -243 -313 -1 -176 142 -318 319
-318 126 0 230 66 287 182 27 55 32 76 32 136 0 126 -66 231 -177 286 -73 35
-153 45 -218 27z m176 -54 c65 -22 136 -93 158 -158 65 -190 -63 -375 -258
-375 -156 0 -275 119 -275 275 0 113 73 223 171 258 59 21 144 21 204 0z"/>
<path d="M4253 13535 c-50 -25 -113 -93 -113 -122 0 -7 -11 -13 -25 -13 -62 0
-141 -55 -174 -122 l-20 -42 -63 -1 c-108 -1 -190 -67 -218 -175 -27 -103 26
-211 130 -266 31 -17 65 -19 292 -22 167 -3 276 0 312 8 146 30 225 181 165
319 l-20 48 33 48 c31 44 33 52 33 130 0 77 -2 87 -30 126 -50 71 -104 103
-183 107 -57 3 -75 -1 -119 -23z m175 -30 c100 -42 148 -155 107 -252 -30 -70
-38 -74 -102 -41 -30 15 -61 28 -68 28 -7 0 -18 13 -25 29 -17 42 -69 91 -118
113 l-43 19 20 32 c24 39 111 87 157 87 19 0 51 -7 72 -15z m-223 -164 c48
-22 76 -52 102 -106 16 -35 23 -40 62 -47 88 -15 144 -84 145 -178 1 -71 -25
-124 -77 -158 l-41 -27 -302 0 -302 0 -39 31 c-51 41 -73 87 -73 154 0 69 34
127 92 160 33 18 52 21 110 19 l70 -4 20 53 c38 101 140 146 233 103z"/>
<path d="M4673 13295 c-9 -24 15 -36 67 -33 37 3 45 6 45 23 0 17 -8 20 -53
23 -41 2 -54 0 -59 -13z"/>
<path d="M462 13248 c-25 -25 7 -38 92 -38 86 0 115 12 95 37 -15 17 -170 18
-187 1z"/>
<path d="M1502 13248 c-25 -25 7 -38 92 -38 86 0 115 12 95 37 -15 17 -170 18
-187 1z"/>
<path d="M6945 13189 c-4 -6 -3 -15 2 -20 5 -5 178 -8 419 -7 356 3 409 5 409
18 0 13 -54 15 -412 18 -291 1 -414 -1 -418 -9z"/>
<path d="M4604 13109 c-6 -11 62 -89 78 -89 24 0 18 34 -13 66 -34 35 -53 42
-65 23z"/>
<path d="M7065 13109 c-4 -6 -3 -15 2 -20 5 -5 130 -8 299 -7 249 3 289 5 289
18 0 13 -40 15 -292 18 -204 2 -294 -1 -298 -9z"/>
<path d="M7134 13018 c-9 -15 28 -45 96 -77 102 -47 240 -28 330 47 20 17 23
23 12 33 -10 11 -17 10 -40 -4 -53 -35 -98 -51 -159 -55 -68 -5 -119 8 -175
44 -42 27 -54 29 -64 12z"/>
<path d="M694 12907 c-62 -62 -74 -85 -46 -95 12 -4 117 90 133 119 6 12 4 21
-6 29 -13 11 -26 2 -81 -53z"/>
<path d="M1370 12955 c-11 -13 -2 -26 53 -81 62 -62 85 -74 95 -46 4 12 -90
117 -119 133 -12 6 -21 4 -29 -6z"/>
<path d="M8562 12867 c-53 -53 -61 -70 -41 -83 13 -7 129 104 129 123 0 28
-38 10 -88 -40z"/>
<path d="M8727 12867 c-57 -51 -67 -70 -47 -82 15 -9 130 93 130 116 0 31 -21
22 -83 -34z"/>
<path d="M8886 12861 c-52 -53 -64 -81 -35 -81 19 0 119 103 119 121 0 32 -24
21 -84 -40z"/>
<path d="M9046 12861 c-54 -54 -64 -81 -33 -81 20 0 130 117 123 129 -13 21
-32 11 -90 -48z"/>
<path d="M1042 12828 c-7 -7 -12 -44 -12 -93 0 -85 12 -114 37 -94 9 8 13 38
13 94 0 86 -13 118 -38 93z"/>
<path d="M2682 11721 c-20 -12 -12 -196 8 -196 12 0 16 18 18 94 3 95 -3 117
-26 102z"/>
<path d="M7128 11607 c-3 -60 -8 -82 -31 -115 -43 -66 -97 -96 -181 -100 -39
-2 -75 -8 -80 -12 -15 -15 40 -116 81 -149 l39 -31 -10 -50 c-19 -92 21 -181
107 -238 l40 -27 291 -3 c196 -2 303 0 329 8 49 14 115 74 138 125 27 58 25
141 -4 196 -29 55 -96 107 -148 115 -27 5 -40 12 -45 28 -29 95 -179 164 -278
126 -21 -8 -26 -6 -26 6 0 50 -78 144 -145 175 -68 32 -72 29 -77 -54z m123
-35 c64 -64 73 -108 32 -155 -16 -18 -34 -46 -41 -63 -12 -28 -14 -29 -71 -26
-66 4 -106 -11 -157 -60 -27 -25 -35 -28 -53 -19 -23 13 -76 79 -69 86 2 3 28
9 56 15 97 18 159 64 201 147 12 23 21 60 21 83 0 54 20 53 81 -8z m298 -155
c26 -18 47 -43 63 -77 18 -40 28 -50 48 -50 108 -1 197 -134 161 -242 -14 -43
-75 -102 -120 -117 -44 -14 -531 -15 -583 -1 -131 37 -176 194 -85 297 50 57
126 78 190 54 31 -12 43 -3 52 37 24 112 173 166 274 99z"/>
<path d="M9209 11504 l-136 -136 -22 45 c-27 56 -97 122 -157 149 -71 31 -77
25 -79 -62 -2 -171 -111 -280 -280 -280 -74 0 -75 0 -75 -25 0 -66 86 -177
167 -216 l45 -22 -105 -106 c-95 -96 -117 -131 -84 -131 18 0 887 886 887 904
0 34 -30 12 -161 -120z m-243 -46 c36 -37 64 -88 64 -115 0 -20 -307 -337
-332 -341 -38 -7 -143 71 -174 130 -8 15 -14 29 -14 31 0 2 25 7 55 10 158 16
280 139 293 294 l5 62 36 -19 c20 -10 50 -33 67 -52z"/>
<path d="M5548 11506 c-6 -89 -33 -139 -99 -183 -33 -22 -56 -28 -113 -31 -39
-2 -75 -8 -80 -12 -15 -14 39 -115 81 -150 l39 -33 -10 -49 c-19 -90 22 -180
107 -236 l40 -27 296 -3 c250 -3 302 -1 336 13 177 67 196 311 32 405 -28 16
-62 30 -73 30 -15 0 -26 10 -34 30 -21 51 -51 81 -104 106 -54 25 -126 31
-169 15 -22 -9 -25 -7 -30 17 -16 76 -105 162 -184 178 l-30 6 -5 -76z m147
-56 c40 -58 43 -94 8 -133 -16 -18 -34 -46 -41 -63 -12 -27 -15 -29 -63 -25
-62 4 -125 -19 -164 -59 -16 -17 -34 -30 -41 -30 -12 0 -84 77 -84 91 0 4 21
10 47 14 58 9 129 44 165 82 38 40 68 110 68 161 l0 43 40 -22 c22 -12 51 -39
65 -59z m252 -121 c45 -22 80 -62 92 -107 6 -22 15 -28 51 -34 61 -11 114 -49
139 -100 48 -100 9 -201 -94 -249 -36 -17 -68 -19 -300 -19 -160 0 -275 4
-300 11 -52 15 -110 74 -124 127 -21 76 6 146 74 198 32 24 46 28 94 27 31 -1
67 -3 80 -5 20 -3 25 3 36 41 16 53 47 88 100 112 53 24 99 24 152 -2z"/>
<path d="M3036 11451 l-118 -119 -42 28 c-159 106 -375 47 -459 -124 -51 -104
-44 -229 19 -321 l25 -38 -63 -66 c-137 -143 -140 -147 -125 -160 12 -10 92
66 453 429 242 243 442 447 446 455 4 7 2 18 -5 23 -10 9 -41 -17 -131 -107z
m-202 -115 c25 -15 46 -30 46 -34 0 -4 -87 -94 -194 -201 l-193 -193 -20 28
c-34 49 -47 95 -46 160 1 113 74 221 177 258 64 24 173 16 230 -18z"/>
<path d="M2267 11526 c-7 -17 123 -145 141 -139 23 9 12 29 -51 91 -64 63 -81
72 -90 48z"/>
<path d="M1047 11506 c-59 -22 -108 -69 -128 -122 -12 -31 -14 -32 -84 -36
-58 -3 -80 -9 -113 -31 -54 -35 -102 -117 -102 -174 0 -72 32 -64 43 11 14 92
106 165 190 152 80 -14 78 -14 93 33 24 80 90 131 171 131 71 0 122 -32 156
-100 25 -49 32 -55 73 -66 25 -6 58 -20 72 -31 34 -25 72 -90 72 -124 0 -14 6
-33 13 -43 12 -16 14 -16 26 -2 17 20 1 93 -31 144 -26 42 -90 90 -132 98 -24
4 -38 17 -61 57 -53 92 -167 137 -258 103z"/>
<path d="M4163 11479 c-72 -28 -154 -105 -184 -171 -32 -72 -33 -183 -2 -250
30 -66 96 -133 162 -165 49 -24 68 -28 146 -28 74 0 98 5 138 24 26 13 47 29
47 35 0 7 -18 27 -40 45 -62 50 -92 110 -98 197 -4 65 -2 80 23 129 15 32 45
71 71 92 24 21 44 43 44 51 0 25 -90 55 -175 59 -63 2 -91 -1 -132 -18z m193
-30 c24 -6 44 -14 44 -16 0 -3 -16 -24 -36 -46 -56 -62 -78 -119 -78 -207 0
-88 22 -145 78 -207 20 -22 36 -43 36 -46 0 -3 -25 -11 -57 -17 -178 -37 -343
92 -343 270 0 185 172 315 356 269z"/>
<path d="M2095 11090 c-14 -23 11 -30 101 -30 87 0 94 1 94 20 0 19 -7 20 -94
20 -53 0 -98 -4 -101 -10z"/>
<path d="M627 11023 c-4 -3 -7 -12 -7 -20 0 -11 83 -13 461 -13 433 0 460 1
457 18 -3 16 -34 17 -454 20 -248 1 -454 -1 -457 -5z"/>
<path d="M623 10924 c-3 -9 0 -20 8 -25 8 -5 210 -9 449 -9 239 0 441 4 449 9
8 5 11 16 8 25 -6 14 -53 16 -457 16 -404 0 -451 -2 -457 -16z"/>
<path d="M625 10829 c-4 -6 -3 -15 2 -20 5 -5 193 -8 459 -7 391 3 449 5 449
18 0 13 -58 15 -452 18 -320 1 -454 -1 -458 -9z"/>
<path d="M7007 10762 c-59 -60 -70 -82 -39 -82 26 0 126 105 119 124 -10 25
-19 20 -80 -42z"/>
<path d="M7167 10762 c-59 -60 -70 -82 -39 -82 26 0 126 105 119 124 -10 25
-19 20 -80 -42z"/>
<path d="M7326 10761 c-54 -54 -64 -81 -33 -81 7 0 38 26 70 58 45 45 55 60
45 70 -7 7 -15 12 -18 12 -3 0 -32 -27 -64 -59z"/>
<path d="M7487 10762 c-56 -55 -67 -82 -34 -82 20 0 130 117 123 129 -13 20
-27 12 -89 -47z"/>
<path d="M1115 9628 c-3 -8 -5 -55 -3 -104 2 -71 6 -89 18 -89 12 0 15 18 15
99 0 71 -4 101 -12 103 -7 3 -15 -2 -18 -9z"/>
<path d="M7112 9527 c-53 -53 -61 -70 -41 -83 13 -7 129 104 129 123 0 28 -38
10 -88 -40z"/>
<path d="M7276 9526 c-42 -38 -57 -58 -53 -70 4 -9 11 -16 17 -16 18 0 133
118 126 129 -12 20 -30 11 -90 -43z"/>
<path d="M7438 9523 c-51 -54 -64 -83 -34 -83 19 0 129 117 122 129 -13 21
-32 11 -88 -46z"/>
<path d="M7601 9526 c-38 -38 -52 -59 -47 -71 3 -9 10 -15 15 -13 22 8 121
108 121 122 0 31 -36 15 -89 -38z"/>
<path d="M5478 9542 c-68 -25 -129 -72 -166 -128 -32 -48 -39 -89 -15 -89 7 0
27 25 45 55 38 63 109 116 166 125 62 9 87 20 87 35 0 22 -61 23 -117 2z"/>
<path d="M8865 9541 c-45 -20 -94 -71 -113 -117 -12 -28 -15 -29 -75 -29 -53
0 -71 -5 -106 -28 -51 -34 -96 -102 -110 -168 -22 -100 29 -215 118 -267 l46
-27 279 -3 278 -3 55 27 c64 31 107 84 129 161 36 123 -41 269 -159 305 -24 7
-42 20 -47 34 -15 37 -73 96 -115 115 -51 24 -129 24 -180 0z m153 -36 c50
-21 81 -52 102 -100 15 -34 24 -42 62 -52 90 -24 148 -104 148 -204 0 -44 -6
-65 -32 -109 -55 -89 -58 -90 -380 -90 -152 0 -287 4 -300 9 -34 13 -78 60
-99 106 -26 57 -24 125 6 184 43 85 112 122 191 102 53 -13 60 -11 67 26 9 47
50 97 97 121 52 26 87 28 138 7z"/>
<path d="M4329 9517 c-19 -12 -45 -39 -58 -60 -23 -35 -27 -37 -78 -37 -30 0
-68 -6 -86 -14 -42 -17 -96 -71 -114 -114 -13 -32 -16 -34 -49 -27 -63 11
-136 -18 -187 -75 -108 -120 -68 -294 80 -357 50 -21 590 -19 641 3 80 33 134
114 137 203 2 49 4 55 36 73 112 64 112 223 1 286 -22 12 -47 22 -56 22 -9 0
-16 4 -16 10 0 16 -61 80 -91 96 -44 22 -120 18 -160 -9z m168 -48 c14 -13 32
-39 39 -56 11 -26 20 -33 42 -33 33 0 81 -30 98 -62 8 -13 13 -42 14 -65 0
-33 -7 -50 -31 -78 -28 -31 -69 -48 -69 -27 0 23 -88 94 -129 105 -37 10 -49
20 -73 59 -16 26 -44 57 -63 68 -24 15 -32 26 -28 38 8 24 44 63 68 73 34 15
104 3 132 -22z m-202 -119 c26 -16 45 -40 62 -77 22 -47 28 -53 55 -53 79 0
158 -87 158 -173 0 -82 -33 -135 -105 -168 -36 -17 -69 -19 -310 -19 -242 0
-274 2 -311 19 -107 48 -138 190 -62 277 49 55 81 68 161 61 64 -6 70 -4 75
15 33 129 167 186 277 118z"/>
<path d="M1469 9364 l-116 -116 -48 31 c-197 125 -461 -11 -482 -249 -6 -67
15 -149 52 -205 l26 -38 -101 -103 c-92 -93 -111 -124 -77 -124 6 0 55 43 108
96 l97 96 65 -32 c76 -37 163 -43 246 -15 64 21 144 92 179 159 23 44 27 63
27 141 0 78 -4 97 -27 146 -16 31 -28 60 -28 64 0 4 50 59 111 121 77 78 110
118 106 128 -4 9 -10 16 -14 16 -5 0 -60 -52 -124 -116z m-209 -111 c30 -16
55 -33 57 -38 2 -6 -84 -97 -191 -204 l-194 -194 -26 39 c-69 106 -49 260 46
351 81 78 209 96 308 46z"/>
<path d="M704 9439 c-7 -12 113 -139 133 -139 32 0 20 27 -38 86 -63 64 -82
74 -95 53z"/>
<path d="M5587 9429 c-85 -20 -170 -85 -211 -162 -19 -34 -17 -67 3 -67 6 0
19 17 30 38 40 77 144 152 213 152 36 0 58 10 58 25 0 24 -30 29 -93 14z"/>
<path d="M5926 9410 c-34 -11 -82 -54 -102 -92 -13 -25 -20 -28 -70 -28 -88 0
-169 -55 -203 -137 -12 -29 -15 -30 -57 -25 -86 9 -182 -53 -222 -147 -19 -46
-20 -146 0 -192 22 -51 77 -109 123 -130 36 -17 71 -19 323 -19 260 0 286 2
321 19 87 45 151 163 137 252 -6 35 -3 40 21 53 45 23 81 68 94 117 11 40 10
53 -5 92 -19 51 -74 105 -114 113 -17 4 -36 20 -52 46 -42 67 -124 100 -194
78z m115 -57 c16 -10 38 -36 50 -59 17 -35 25 -42 58 -48 59 -9 101 -62 101
-126 0 -41 -5 -55 -30 -83 -41 -47 -63 -51 -84 -17 -25 42 -81 88 -126 101
-31 9 -45 21 -57 46 -8 18 -35 50 -58 71 -49 43 -48 61 5 105 38 32 97 36 141
10z m-224 -114 c40 -15 83 -58 103 -104 15 -34 24 -42 62 -52 163 -44 201
-259 65 -367 l-39 -31 -266 -3 c-177 -2 -280 0 -305 8 -169 50 -185 299 -24
379 45 22 53 23 99 12 27 -6 53 -9 58 -6 4 3 11 20 14 38 7 40 58 100 101 122
35 17 92 19 132 4z"/>
<path d="M7260 9361 c-137 -44 -234 -161 -235 -281 0 -42 3 -55 15 -55 10 0
17 15 21 46 34 233 310 340 484 187 58 -52 83 -94 99 -170 8 -42 18 -63 27
-63 23 0 18 101 -9 155 -30 63 -97 128 -162 159 -43 20 -73 26 -135 28 -44 1
-91 -1 -105 -6z"/>
<path d="M2336 9192 c-18 -29 13 -32 305 -30 253 3 294 5 294 18 0 13 -41 15
-297 18 -163 1 -299 -1 -302 -6z"/>
<path d="M2336 9112 c-18 -29 13 -32 305 -30 253 3 294 5 294 18 0 13 -41 15
-297 18 -163 1 -299 -1 -302 -6z"/>
<path d="M2336 9032 c-18 -29 13 -32 305 -30 253 3 294 5 294 18 0 13 -41 15
-297 18 -163 1 -299 -1 -302 -6z"/>
<path d="M535 9000 c-14 -23 11 -30 101 -30 87 0 94 1 94 20 0 19 -7 20 -94
20 -53 0 -98 -4 -101 -10z"/>
<path d="M7317 8994 c-4 -4 -7 -64 -7 -133 0 -140 11 -177 63 -215 43 -32 115
-28 162 9 39 29 70 87 61 112 -10 25 -39 10 -48 -24 -17 -66 -107 -96 -159
-54 -23 18 -24 27 -29 162 -4 119 -8 144 -20 147 -9 1 -19 0 -23 -4z"/>
<path d="M8717 8834 c-10 -10 -8 -166 2 -183 5 -8 16 -11 25 -8 24 9 19 190
-4 195 -9 1 -19 0 -23 -4z"/>
<path d="M8837 8834 c-10 -10 -8 -86 2 -103 5 -8 16 -11 26 -8 22 9 18 110 -5
115 -9 1 -19 0 -23 -4z"/>
<path d="M8957 8834 c-10 -10 -8 -166 2 -183 5 -8 16 -11 25 -8 24 9 19 190
-4 195 -9 1 -19 0 -23 -4z"/>
<path d="M9077 8834 c-10 -10 -8 -86 2 -103 5 -8 16 -11 26 -8 22 9 18 110 -5
115 -9 1 -19 0 -23 -4z"/>
<path d="M3875 8769 c-16 -25 21 -29 266 -27 218 3 254 5 254 18 0 13 -36 15
-257 18 -179 2 -259 -1 -263 -9z"/>
<path d="M3876 8692 c-2 -4 -1 -13 3 -20 6 -9 70 -12 262 -10 218 3 254 5 254
18 0 13 -36 15 -257 18 -141 1 -259 -1 -262 -6z"/>
<path d="M4170 7519 c-47 -19 -92 -62 -114 -108 l-21 -46 -57 3 c-133 7 -242
-117 -225 -258 7 -61 27 -99 74 -145 62 -61 104 -67 411 -63 l269 3 49 30 c91
57 137 180 104 280 -23 69 -122 155 -179 155 -11 0 -21 9 -25 23 -9 36 -63 94
-109 116 -47 23 -133 27 -177 10z m156 -48 c46 -21 78 -57 94 -107 9 -26 17
-34 35 -34 85 0 174 -97 175 -191 0 -56 -45 -135 -94 -164 l-43 -25 -282 0
c-311 0 -313 0 -369 64 -77 88 -62 209 34 282 32 25 46 29 93 28 31 -1 65 -3
76 -5 15 -3 22 5 32 35 20 58 51 96 97 117 52 24 100 24 152 0z"/>
<path d="M5734 7516 c-41 -18 -101 -81 -114 -120 -10 -31 -10 -31 -79 -31 -61
0 -75 -4 -112 -30 -60 -42 -99 -119 -99 -195 0 -95 44 -170 124 -213 39 -21
56 -22 296 -25 297 -4 342 2 402 56 59 53 82 105 82 182 0 107 -64 197 -159
222 -33 9 -47 19 -53 38 -15 40 -59 87 -105 109 -50 24 -135 27 -183 7z m162
-45 c46 -21 78 -57 94 -107 9 -26 17 -34 36 -34 37 0 100 -36 128 -73 71 -93
39 -238 -66 -293 -21 -11 -85 -14 -305 -14 -316 0 -323 1 -378 79 -26 37 -30
51 -30 110 0 58 4 74 29 109 38 56 103 87 159 78 79 -14 80 -13 87 20 11 52
48 101 93 123 52 26 99 26 153 2z"/>
<path d="M8851 7504 c-38 -19 -62 -40 -82 -72 -16 -25 -29 -51 -29 -57 0 -8
-17 -10 -53 -7 -167 14 -288 -174 -213 -333 13 -27 36 -62 52 -77 59 -55 78
-58 386 -58 321 0 335 3 399 79 56 65 73 147 47 235 -17 58 -94 132 -152 148
-38 10 -47 18 -62 51 -48 106 -180 147 -293 91z m201 -49 c23 -16 45 -42 59
-74 20 -42 28 -51 58 -56 54 -10 89 -32 121 -76 72 -100 36 -240 -75 -290 -36
-17 -69 -19 -305 -19 -237 0 -269 2 -306 19 -50 23 -89 71 -105 132 -34 128
89 263 209 229 57 -15 61 -13 73 35 13 52 65 110 112 124 47 15 116 4 159 -24z"/>
<path d="M2606 7496 c-47 -18 -112 -79 -127 -121 -11 -30 -13 -31 -63 -27 -41
3 -61 -2 -106 -25 -163 -83 -173 -318 -19 -420 l43 -28 307 0 307 0 43 30 c93
66 133 189 94 292 -24 63 -93 130 -148 144 -36 10 -47 20 -70 60 -48 86 -167
130 -261 95z m162 -53 c35 -17 67 -55 83 -101 8 -24 18 -31 47 -36 56 -9 106
-49 136 -108 32 -64 33 -108 2 -173 -51 -109 -72 -115 -399 -115 -253 0 -264
1 -307 23 -99 49 -135 180 -77 279 46 79 120 109 214 85 31 -8 32 -7 43 33 30
113 149 164 258 113z"/>
<path d="M1055 7471 c-45 -20 -94 -71 -113 -117 -12 -28 -14 -29 -70 -26 -50
3 -64 -1 -112 -30 -148 -90 -148 -306 0 -395 l54 -33 283 0 c309 0 328 3 386
58 49 47 71 100 71 172 0 107 -64 197 -158 222 -36 9 -47 19 -66 56 -52 98
-174 139 -275 93z m181 -51 c35 -22 74 -77 74 -104 0 -9 6 -18 13 -20 6 -2 31
-9 55 -15 63 -18 109 -63 128 -127 14 -49 14 -59 0 -107 -9 -29 -27 -64 -43
-79 -57 -54 -79 -58 -365 -58 -246 0 -264 1 -306 21 -125 61 -137 249 -19 327
40 27 82 32 166 20 20 -3 25 3 36 41 34 113 161 162 261 101z"/>
<path d="M7305 7472 c-47 -22 -112 -90 -121 -127 -6 -24 -10 -26 -44 -20 -56
9 -116 -11 -165 -56 -131 -121 -106 -328 50 -412 37 -21 56 -22 292 -25 161
-2 272 1 306 8 147 30 229 204 163 345 -28 61 -91 120 -143 134 -31 9 -43 20
-65 60 -51 94 -179 137 -273 93z m167 -48 c37 -19 75 -62 83 -93 9 -37 24 -51
54 -51 75 0 161 -109 161 -204 0 -44 -42 -127 -79 -159 -17 -14 -46 -29 -64
-32 -18 -3 -154 -5 -303 -3 l-271 3 -36 28 c-115 87 -108 262 13 345 32 22 42
23 107 18 l72 -6 11 41 c30 109 152 165 252 113z"/>
<path d="M8720 6740 c0 -91 2 -101 18 -98 15 3 17 16 17 98 0 82 -2 95 -17 98
-16 3 -18 -7 -18 -98z"/>
<path d="M8840 6780 c0 -53 2 -61 18 -58 14 3 17 14 17 58 0 44 -3 55 -17 58
-16 3 -18 -5 -18 -58z"/>
<path d="M8960 6740 c0 -91 2 -101 18 -98 15 3 17 16 17 98 0 82 -2 95 -17 98
-16 3 -18 -7 -18 -98z"/>
<path d="M9080 6780 c0 -53 2 -61 18 -58 14 3 17 14 17 58 0 44 -3 55 -17 58
-16 3 -18 -5 -18 -58z"/>
<path d="M2581 6765 c-35 -36 -61 -71 -59 -78 3 -6 17 -14 32 -17 l27 -5 -45
-45 c-50 -48 -54 -57 -30 -67 17 -6 154 121 154 144 0 8 -12 13 -30 13 -16 0
-30 3 -30 7 0 4 19 26 41 49 39 40 44 64 15 64 -7 0 -41 -29 -75 -65z"/>
<path d="M3937 6772 c-59 -60 -70 -82 -39 -82 26 0 126 105 119 124 -10 25
-19 20 -80 -42z"/>
<path d="M4337 6772 c-59 -60 -70 -82 -39 -82 26 0 126 105 119 124 -10 25
-19 20 -80 -42z"/>
<path d="M5472 6777 c-49 -50 -66 -87 -40 -87 20 0 127 111 121 126 -9 24 -27
15 -81 -39z"/>
<path d="M5906 6771 c-54 -54 -64 -81 -33 -81 23 0 120 107 114 124 -10 25
-19 20 -81 -43z"/>
<path d="M4116 6755 c-73 -66 -83 -95 -31 -95 26 0 26 -1 -19 -52 -25 -29 -45
-57 -43 -63 8 -24 39 -5 102 63 68 74 78 102 33 102 -20 0 -19 3 15 38 20 21
37 43 37 49 0 29 -31 15 -94 -42z"/>
<path d="M5650 6754 c-55 -53 -67 -70 -59 -81 6 -7 23 -13 37 -13 25 0 24 -2
-22 -49 -32 -33 -47 -55 -43 -65 4 -9 11 -16 16 -16 17 0 142 143 139 159 -2
8 -13 18 -26 21 -23 5 -22 6 12 39 20 19 36 41 36 47 0 32 -26 20 -90 -42z"/>
<path d="M752 6757 c-50 -50 -66 -87 -39 -87 19 0 130 116 123 129 -13 20 -32
11 -84 -42z"/>
<path d="M906 6751 c-54 -54 -64 -81 -33 -81 19 0 117 103 117 123 0 30 -24
18 -84 -42z"/>
<path d="M1066 6751 c-54 -54 -64 -81 -33 -81 19 0 117 103 117 123 0 30 -24
18 -84 -42z"/>
<path d="M1226 6751 c-54 -54 -64 -81 -33 -81 23 0 120 107 114 124 -10 25
-19 20 -81 -43z"/>
<path d="M7133 6764 c-8 -21 13 -42 28 -27 13 13 5 43 -11 43 -6 0 -13 -7 -17
-16z"/>
<path d="M7333 6764 c-8 -21 13 -42 28 -27 13 13 5 43 -11 43 -6 0 -13 -7 -17
-16z"/>
<path d="M7533 6764 c-8 -21 13 -42 28 -27 13 13 5 43 -11 43 -6 0 -13 -7 -17
-16z"/>
<path d="M7212 6673 c2 -10 10 -18 18 -18 8 0 16 8 18 18 2 12 -3 17 -18 17
-15 0 -20 -5 -18 -17z"/>
<path d="M7412 6673 c2 -10 10 -18 18 -18 8 0 16 8 18 18 2 12 -3 17 -18 17
-15 0 -20 -5 -18 -17z"/>
<path d="M5345 6645 c-29 -28 -33 -55 -7 -54 21 0 66 55 57 69 -10 16 -24 12
-50 -15z"/>
<path d="M5776 6641 c-27 -28 -28 -51 -2 -51 20 0 59 47 53 64 -9 23 -20 20
-51 -13z"/>
<path d="M622 6627 c-24 -26 -29 -57 -9 -57 19 0 70 57 63 69 -11 17 -31 13
-54 -12z"/>
<path d="M782 6627 c-24 -26 -29 -57 -9 -57 19 0 70 57 63 69 -11 17 -31 13
-54 -12z"/>
<path d="M936 6621 c-27 -28 -28 -51 -2 -51 18 0 56 43 56 63 0 26 -23 20 -54
-12z"/>
<path d="M1096 6621 c-27 -28 -28 -51 -2 -51 18 0 56 43 56 63 0 26 -23 20
-54 -12z"/>
<path d="M8835 6640 c-8 -13 3 -30 20 -30 14 0 27 24 18 34 -10 9 -31 7 -38
-4z"/>
<path d="M9075 6640 c-8 -13 3 -30 20 -30 14 0 27 24 18 34 -10 9 -31 7 -38
-4z"/>
<path d="M7292 6593 c2 -10 10 -18 18 -18 8 0 16 8 18 18 2 12 -3 17 -18 17
-15 0 -20 -5 -18 -17z"/>
<path d="M8715 6560 c-8 -13 3 -30 20 -30 14 0 27 24 18 34 -10 9 -31 7 -38
-4z"/>
<path d="M8955 6560 c-8 -13 3 -30 20 -30 14 0 27 24 18 34 -10 9 -31 7 -38
-4z"/>
<path d="M7140 5380 c-98 -13 -164 -30 -205 -53 -33 -18 -40 -28 -40 -52 0
-35 432 -765 452 -765 11 0 453 727 461 758 6 22 -37 60 -87 77 -113 39 -414
57 -581 35z m485 -55 c174 -37 176 -72 4 -111 -110 -25 -443 -26 -558 -1 -89
19 -141 41 -141 58 0 22 105 52 237 69 102 13 365 4 458 -15z m-560 -156 c91
-21 489 -19 575 3 36 9 66 15 68 14 3 -4 -337 -577 -352 -594 -10 -10 -44 41
-169 250 -86 145 -169 283 -183 307 -17 28 -22 42 -13 39 8 -3 41 -12 74 -19z"/>
<path d="M8685 5379 c-87 -11 -160 -32 -202 -59 -63 -38 -37 -97 57 -129 164
-56 610 -53 747 4 46 19 83 53 83 75 0 24 -39 57 -90 75 -113 40 -411 57 -595
34z m500 -54 c174 -36 176 -72 4 -111 -109 -25 -443 -25 -558 -1 -89 19 -141
41 -141 58 0 22 105 52 237 69 100 13 365 4 458 -15z"/>
<path d="M5453 5331 c-90 -31 -152 -90 -194 -186 -26 -58 -32 -150 -9 -150 9
0 18 21 27 64 31 153 138 245 283 244 143 -1 256 -106 278 -258 9 -64 36 -70
40 -9 8 107 -96 250 -211 293 -70 26 -144 26 -214 2z"/>
<path d="M1455 5300 c-9 -15 4 -30 26 -30 33 0 69 -48 69 -92 0 -100 -25 -108
-340 -108 -234 0 -251 -1 -248 -17 3 -17 24 -18 253 -21 157 -2 264 1 287 8
44 13 85 58 94 106 9 50 -20 121 -60 145 -34 21 -71 25 -81 9z"/>
<path d="M3033 5234 c-6 -17 12 -34 38 -34 39 0 75 -80 58 -128 -19 -55 -27
-57 -362 -60 -284 -3 -308 -4 -305 -20 3 -15 31 -17 308 -20 342 -3 355 0 392
69 23 43 23 73 -2 126 -28 64 -111 107 -127 67z"/>
<path d="M4517 5176 c-7 -19 12 -36 40 -36 31 0 72 -22 99 -52 85 -92 71 -239
-29 -310 -31 -22 -40 -23 -307 -28 -249 -5 -275 -7 -278 -22 -5 -27 26 -30
294 -26 235 3 251 4 291 25 74 40 133 136 133 218 0 48 -27 117 -62 159 -50
61 -168 107 -181 72z"/>
<path d="M6170 5145 c0 -8 15 -21 34 -29 67 -28 85 -95 43 -157 l-23 -34 -269
-5 c-262 -5 -270 -6 -270 -25 0 -19 8 -20 255 -23 227 -2 259 0 290 15 52 27
80 75 80 141 0 50 -3 58 -39 93 -28 29 -47 39 -70 39 -21 0 -31 -5 -31 -15z"/>
<path d="M2182 5073 c3 -15 14 -18 78 -18 60 0 75 3 75 15 0 12 -17 16 -78 18
-71 3 -78 1 -75 -15z"/>
<path d="M2382 5073 c3 -17 22 -18 258 -18 220 0 255 2 255 15 0 13 -37 15
-258 18 -243 2 -258 1 -255 -15z"/>
<path d="M8516 5074 c-9 -24 35 -61 95 -79 176 -52 566 -38 648 23 36 27 48
49 33 64 -9 9 -17 7 -36 -11 -34 -32 -101 -49 -234 -60 -200 -16 -430 13 -461
59 -16 24 -37 26 -45 4z"/>
<path d="M4337 5064 c-11 -11 5 -34 25 -34 31 0 78 -54 78 -90 0 -38 -24 -86
-49 -100 -12 -6 -121 -10 -281 -10 -230 0 -261 -2 -267 -16 -3 -9 0 -20 8 -25
20 -12 486 -11 531 1 68 19 117 112 97 185 -12 43 -71 95 -108 95 -15 0 -30
-3 -34 -6z"/>
<path d="M2262 4993 c3 -15 14 -18 78 -18 60 0 75 3 75 15 0 12 -17 16 -78 18
-71 3 -78 1 -75 -15z"/>
<path d="M731 4991 c-8 -5 -11 -16 -8 -25 6 -14 46 -16 371 -16 l364 0 26 -31
c49 -58 25 -149 -44 -163 -23 -4 -31 -11 -28 -23 9 -46 98 -7 131 57 32 63 10
134 -57 184 -26 20 -42 21 -384 24 -203 1 -363 -2 -371 -7z"/>
<path d="M2111 4931 c-8 -5 -11 -16 -8 -25 5 -13 21 -16 76 -16 74 0 98 13 66
37 -21 15 -112 18 -134 4z"/>
<path d="M2311 4931 c-8 -5 -11 -16 -8 -25 6 -14 45 -16 365 -16 347 0 360 -1
385 -20 63 -49 49 -153 -23 -176 -49 -16 -53 -44 -7 -44 46 0 93 39 108 91 23
74 -27 169 -99 189 -46 12 -701 13 -721 1z"/>
<path d="M3683 4894 c-3 -9 0 -20 8 -25 8 -5 120 -9 249 -9 129 0 241 4 249 9
8 5 11 16 8 25 -6 14 -36 16 -257 16 -221 0 -251 -2 -257 -16z"/>
<path d="M617 4842 c-59 -60 -70 -82 -39 -82 26 0 126 105 119 124 -10 25 -19
20 -80 -42z"/>
<path d="M1016 4841 c-54 -54 -64 -81 -33 -81 23 0 120 107 114 124 -10 25
-19 20 -81 -43z"/>
<path d="M8704 4875 c-14 -36 41 -62 153 -71 148 -12 293 31 249 74 -14 14
-17 14 -37 -4 -19 -17 -37 -19 -164 -19 -122 0 -146 3 -162 18 -24 21 -32 21
-39 2z"/>
<path d="M791 4806 c-68 -69 -75 -96 -24 -96 27 0 27 -1 -21 -49 -45 -45 -53
-71 -23 -71 7 0 43 31 81 69 73 74 81 101 29 101 l-27 0 42 43 c23 23 42 48
42 55 0 29 -40 8 -99 -52z"/>
<path d="M5451 4831 c-8 -5 -11 -16 -8 -25 6 -14 46 -16 371 -16 l364 0 26
-31 c47 -55 22 -150 -43 -164 -22 -5 -31 -12 -31 -26 0 -44 96 -5 125 50 8 17
15 52 15 80 0 39 -6 56 -27 82 -49 58 -59 59 -435 59 -189 0 -349 -4 -357 -9z"/>
<path d="M8785 4717 c-7 -17 105 -207 122 -207 18 0 126 187 119 205 -10 28
-25 16 -67 -55 -23 -39 -45 -72 -49 -75 -4 -2 -27 28 -51 67 -45 73 -65 91
-74 65z"/>
<path d="M5742 3478 c-7 -7 -12 -44 -12 -93 0 -85 12 -114 37 -94 9 8 13 38
13 94 0 86 -13 118 -38 93z"/>
<path d="M890 3304 c-143 -18 -249 -55 -270 -95 -16 -29 11 -66 64 -90 149
-66 633 -66 782 0 120 54 79 128 -93 167 -67 15 -406 27 -483 18z m451 -58
c87 -17 149 -40 149 -56 0 -15 -75 -47 -128 -56 -35 -5 -41 -4 -37 8 9 23 -37
55 -96 67 -27 6 -97 11 -154 11 -57 0 -127 -5 -154 -11 -59 -12 -105 -44 -96
-67 4 -12 -2 -13 -37 -8 -53 9 -128 41 -128 56 0 23 109 55 244 71 98 11 346
3 437 -15z m-134 -77 c35 -6 63 -15 63 -19 0 -15 -99 -30 -195 -30 -97 0 -195
15 -195 30 0 25 220 38 327 19z"/>
<path d="M2601 3296 c-8 -9 -11 -45 -9 -103 3 -80 5 -88 23 -88 18 0 20 8 23
91 2 69 -1 94 -11 103 -11 9 -17 8 -26 -3z"/>
<path d="M5335 3300 c-9 -15 9 -41 70 -99 45 -43 58 -51 70 -41 20 16 9 34
-59 98 -55 52 -70 60 -81 42z"/>
<path d="M6123 3246 c-55 -55 -64 -68 -53 -81 8 -10 17 -12 29 -6 29 16 123
121 119 133 -10 28 -33 16 -95 -46z"/>
<path d="M7587 3162 c-50 -50 -58 -72 -29 -72 23 0 116 95 108 109 -13 20 -31
11 -79 -37z"/>
<path d="M5703 3180 c-92 -19 -182 -90 -225 -178 -19 -39 -23 -63 -23 -137 0
-106 20 -158 88 -226 155 -156 416 -110 514 89 24 48 28 70 28 137 0 67 -4 89
-28 137 -64 131 -215 207 -354 178z m182 -64 c265 -126 178 -526 -115 -526
-196 0 -328 190 -260 372 55 148 234 221 375 154z"/>
<path d="M5685 3021 c-114 -71 -128 -203 -31 -289 44 -38 71 -46 137 -40 140
14 204 179 112 289 -15 17 -42 38 -60 45 -47 20 -122 18 -158 -5z"/>
<path d="M7145 3165 c-74 -28 -137 -85 -175 -159 -30 -59 -34 -77 -34 -139 0
-123 68 -228 183 -284 76 -38 190 -39 269 -4 51 23 62 37 42 57 -7 7 2 18 27
35 50 32 100 108 109 164 12 86 -30 186 -100 233 -24 16 -32 29 -29 42 4 14
-6 24 -39 41 -55 29 -192 36 -253 14z m306 -142 c23 -21 48 -52 56 -70 20 -48
16 -127 -7 -174 -22 -42 -94 -102 -118 -97 -8 2 -28 26 -44 55 -38 67 -47 143
-24 208 18 56 61 115 81 115 8 0 34 -17 56 -37z"/>
<path d="M8862 3097 c-60 -94 -130 -240 -142 -292 -48 -215 247 -331 364 -143
45 74 41 129 -18 254 -59 123 -133 244 -151 244 -7 0 -31 -28 -53 -63z m156
-181 c53 -106 63 -165 37 -220 -48 -102 -201 -115 -267 -23 -50 70 -34 148 69
331 l55 98 30 -47 c17 -27 51 -89 76 -139z"/>
<path d="M2190 3097 c0 -16 121 -137 138 -137 28 0 8 39 -46 93 -55 54 -92 72
-92 44z"/>
<path d="M2987 3052 c-54 -55 -72 -92 -44 -92 16 0 137 121 137 138 0 28 -39
8 -93 -46z"/>
<path d="M683 2994 c-9 -24 33 -60 90 -78 238 -72 697 -26 697 70 0 24 -21 26
-45 4 -33 -31 -103 -49 -235 -60 -197 -18 -433 14 -463 60 -14 24 -35 26 -44
4z"/>
<path d="M2553 2976 c-132 -43 -204 -127 -237 -278 l-6 -28 -104 0 c-83 0
-105 -3 -110 -15 -3 -8 3 -19 14 -25 12 -6 202 -10 525 -10 323 0 513 4 525
10 11 6 17 17 14 25 -5 12 -27 15 -110 15 l-104 0 -6 28 c-16 74 -39 127 -74
171 -73 92 -223 141 -327 107z m201 -61 c77 -37 156 -147 156 -217 l0 -28
-275 0 -275 0 0 25 c0 32 24 89 57 138 26 38 73 72 128 94 43 18 162 11 209
-12z"/>
<path d="M4139 2977 c-127 -36 -212 -127 -240 -257 l-11 -50 -98 0 c-69 0
-101 -4 -109 -13 -28 -35 1 -37 535 -37 421 0 524 3 533 13 21 27 -9 37 -110
37 l-97 0 -11 52 c-15 67 -56 142 -100 180 -78 69 -201 100 -292 75z"/>
<path d="M5162 2858 c-25 -25 7 -38 92 -38 86 0 115 12 95 37 -15 17 -170 18
-187 1z"/>
<path d="M6202 2858 c-25 -25 7 -38 92 -38 86 0 115 12 95 37 -15 17 -170 18
-187 1z"/>
<path d="M7615 2860 c-13 -22 9 -30 81 -30 66 0 75 2 72 18 -3 14 -16 18 -75
20 -42 2 -74 -1 -78 -8z"/>
<path d="M873 2795 c-21 -57 155 -93 313 -64 59 11 94 31 94 55 0 23 -21 26
-42 7 -18 -16 -38 -18 -163 -18 -122 0 -146 3 -162 18 -24 21 -32 21 -40 2z"/>
<path d="M7543 2644 c-4 -10 8 -30 33 -55 49 -51 73 -64 87 -50 8 8 -4 26 -43
66 -58 59 -67 64 -77 39z"/>
<path d="M954 2636 c-7 -18 103 -206 121 -206 18 0 128 188 121 206 -10 26
-29 10 -72 -60 -22 -37 -44 -69 -48 -69 -4 -1 -26 29 -50 67 -43 72 -62 88
-72 62z"/>
<path d="M5394 2517 c-62 -62 -74 -85 -46 -95 12 -4 117 90 133 119 6 12 4 21
-6 29 -13 11 -26 2 -81 -53z"/>
<path d="M6070 2565 c-11 -13 -2 -26 53 -81 62 -62 85 -74 95 -46 4 12 -90
117 -119 133 -12 6 -21 4 -29 -6z"/>
<path d="M5742 2438 c-7 -7 -12 -44 -12 -93 0 -85 12 -114 37 -94 9 8 13 38
13 94 0 86 -13 118 -38 93z"/>
<path d="M1026 1270 c-62 -40 -65 -57 -66 -351 0 -259 -1 -266 -21 -285 -54
-47 -74 -150 -44 -222 69 -163 301 -163 370 0 30 72 10 175 -44 222 -20 19
-21 26 -21 283 0 240 -2 267 -19 301 -21 40 -66 72 -103 72 -12 0 -36 -9 -52
-20z m99 -47 c31 -31 35 -65 35 -325 l0 -260 30 -34 c64 -74 62 -167 -6 -231
-60 -56 -148 -56 -208 0 -68 64 -70 157 -6 231 l30 34 0 260 c0 143 4 272 9
285 14 37 39 57 71 57 16 0 36 -7 45 -17z"/>
<path d="M1056 1154 c-14 -13 -16 -54 -16 -294 l0 -278 -30 -30 c-65 -66 -22
-172 70 -172 92 0 135 106 70 172 l-30 30 0 278 c0 240 -2 281 -16 294 -8 9
-19 16 -24 16 -5 0 -16 -7 -24 -16z"/>
<path d="M9272 1137 c-72 -73 -132 -138 -132 -145 0 -34 47 0 164 117 91 91
127 134 123 145 -4 9 -10 16 -14 16 -5 0 -68 -60 -141 -133z"/>
<path d="M3928 1234 c-53 -28 -73 -105 -43 -164 48 -94 185 -75 216 29 29 98
-82 185 -173 135z m115 -56 c26 -31 22 -82 -9 -107 -15 -12 -38 -21 -51 -21
-33 0 -73 42 -73 77 1 72 87 105 133 51z"/>
<path d="M2334 1196 c-29 -29 -34 -41 -34 -81 0 -40 5 -52 34 -81 28 -28 42
-34 76 -34 75 0 124 46 124 115 0 69 -49 115 -124 115 -34 0 -48 -6 -76 -34z
m136 -26 c45 -45 13 -130 -50 -130 -38 0 -80 39 -80 75 0 61 87 98 130 55z"/>
<path d="M9157 1142 c-59 -60 -70 -82 -39 -82 26 0 126 105 119 124 -10 25
-19 20 -80 -42z"/>
<path d="M4389 1176 c-90 -32 -166 -104 -193 -184 -10 -29 -16 -81 -16 -143
l0 -98 -67 -3 c-53 -2 -68 -6 -68 -18 0 -12 15 -16 68 -18 l67 -3 0 -190 c0
-176 1 -190 18 -187 15 3 17 21 20 191 l2 187 65 0 c58 0 65 2 65 20 0 18 -7
20 -65 20 l-65 0 0 98 c0 85 3 105 26 150 44 88 124 140 233 150 52 6 66 11
69 25 3 15 -5 17 -60 17 -35 -1 -79 -7 -99 -14z"/>
<path d="M5687 1180 c-113 -29 -211 -109 -264 -218 -36 -73 -38 -80 -38 -177
0 -93 2 -105 32 -166 40 -80 120 -159 200 -197 52 -24 70 -27 163 -27 99 0
110 2 171 32 80 40 160 120 197 200 23 51 27 71 27 158 0 97 -2 104 -38 177
-67 136 -188 217 -335 224 -42 2 -94 -1 -115 -6z m203 -52 c149 -44 263 -214
246 -370 -9 -87 -49 -168 -112 -228 -79 -75 -128 -94 -244 -94 -116 0 -165 19
-244 94 -77 72 -110 150 -110 255 0 107 28 178 97 249 100 101 229 134 367 94z"/>
<path d="M5825 914 c-104 -58 -124 -78 -181 -189 -65 -126 -57 -134 66 -69 51
27 104 61 119 75 26 26 121 196 121 218 0 21 -46 9 -125 -35z"/>
<path d="M2845 1171 c-91 -23 -163 -80 -204 -163 l-31 -61 0 -177 c0 -212 9
-247 81 -321 65 -66 124 -92 214 -93 58 -1 70 2 73 17 3 14 -4 17 -40 17 -111
0 -213 59 -260 149 -28 52 -28 56 -28 225 0 194 8 223 75 291 49 49 108 74
190 82 53 5 65 9 63 22 -4 18 -81 25 -133 12z"/>
<path d="M7337 1144 c-4 -4 -7 -75 -7 -158 l0 -151 -109 109 c-99 99 -131 119
-131 83 0 -7 45 -57 100 -112 l100 -100 -147 -5 c-130 -4 -148 -7 -151 -22 -3
-17 9 -18 147 -18 83 0 151 -3 151 -8 0 -4 -45 -52 -100 -107 -55 -55 -100
-105 -100 -112 0 -33 43 -5 137 89 l103 103 0 -153 c0 -145 1 -152 20 -152 19
0 20 7 20 152 l0 153 103 -103 c94 -94 137 -122 137 -89 0 7 -45 57 -100 112
-55 55 -100 103 -100 107 0 5 68 8 151 8 138 0 150 1 147 18 -3 15 -21 18
-151 22 l-147 5 100 100 c55 55 100 105 100 112 0 36 -32 16 -131 -83 l-108
-108 -3 154 c-3 143 -9 175 -31 154z"/>
<path d="M8979 1007 c-46 -35 -50 -88 -10 -128 48 -48 111 -36 137 26 15 38
11 59 -19 93 -23 25 -81 30 -108 9z"/>
<path d="M8830 819 c-38 -17 -51 -19 -87 -10 -95 24 -172 7 -240 -53 -25 -22
-54 -58 -64 -81 -21 -45 -25 -135 -8 -184 9 -26 8 -39 -11 -78 -40 -86 -3
-123 86 -84 40 18 53 20 82 10 19 -6 62 -9 97 -7 82 5 147 44 190 112 27 44
30 57 29 125 -1 42 -2 90 -4 106 -1 17 6 52 16 78 l19 49 -24 19 c-28 23 -26
23 -81 -2z m50 -40 c0 -6 -5 -19 -11 -30 -10 -20 -11 -20 -30 -3 -19 17 -19
19 -3 31 22 16 44 17 44 2z m-157 -10 c22 -6 55 -25 75 -44 l36 -33 -27 -39
c-31 -45 -188 -201 -229 -227 -36 -24 -59 -10 -92 56 -43 86 -28 176 42 241
53 50 123 66 195 46z m147 -195 c0 -26 -10 -61 -28 -95 -22 -43 -38 -59 -81
-81 -50 -26 -109 -36 -143 -23 -10 4 26 47 111 133 72 73 129 123 133 117 4
-5 8 -29 8 -51z m-370 -184 c9 -6 3 -13 -19 -24 -28 -15 -31 -15 -31 -1 0 9 5
26 11 37 8 15 13 17 19 8 4 -7 13 -16 20 -20z"/>
</g>
</svg>
